<svg xmlns="http://www.w3.org/2000/svg" xmlns:svg="http://www.w3.org/2000/svg" id="Capa_1" width="512" height="512" enable-background="new 0 0 512 512" version="1.1" viewBox="0 0 512 512"><metadata id="metadata31"/><g id="layer2" display="inline" opacity=".08"><path id="path2" fill="#8c9eff" d="m 164.162,276.496 c 0,0 -104.162,9.77 -104.162,111.278 0,85.494 50.885,110.71 66.941,116.539 2.119,0.769 4.277,-1.004 3.94,-3.23 -2.885,-19.071 -7.958,-89.249 73.671,-89.249 z"/><path id="path4" fill="#8c9eff" d="m 347.838,276.496 c 0,0 104.162,9.77 104.162,111.278 0,85.494 -50.885,110.71 -66.941,116.539 -2.119,0.769 -4.277,-1.004 -3.94,-3.23 2.885,-19.071 7.958,-89.249 -73.671,-89.249 z"/><path id="path6" fill="#7488ed" d="m 347.838,276.496 -1.982,6.642 C 376.708,293.794 422,320.835 422,387.774 c 0,54.362 -20.573,84.348 -39.684,100.479 -0.203,5.277 -0.727,9.73 -1.196,12.829 -0.337,2.227 1.821,4 3.94,3.23 C 401.115,498.484 452,473.267 452,387.774 452,286.266 347.838,276.496 347.838,276.496 Z"/><path id="path8" fill="#ff3d7a" d="m 369.5,201.607 c 0,75.902 -61.484,232.888 -61.484,232.888 H 203.984 c 0,0 -61.484,-156.986 -61.484,-232.888 0,-124.903 100.048,-186.697 112.275,-193.783 0.756,-0.438 1.683,-0.438 2.439,0 12.229,7.086 112.286,68.88 112.286,193.783 z"/><path id="path10" fill="#eb3870" d="m 257.215,7.824 c -0.756,-0.438 -1.683,-0.438 -2.439,0 -2.171,1.258 -7.121,4.251 -13.78,9.007 30.838,22.026 98.504,82.054 98.504,184.776 0,75.902 -61.484,232.888 -61.484,232.888 h 30 c 0,0 61.484,-156.986 61.484,-232.888 C 369.5,76.704 269.443,14.91 257.215,7.824 Z"/><circle id="circle12" cx="256" cy="208.996" r="77" fill="#bdf9ff"/><path id="path14" fill="#ffca28" d="m 247.347,241.773 -11.363,5.959 c -6.112,3.206 -13.256,-1.972 -12.089,-8.762 l 2.17,-12.622 c 1.035,-6.018 -0.965,-12.158 -5.348,-16.42 l -9.192,-8.939 c -4.945,-4.809 -2.216,-13.187 4.618,-14.177 l 12.704,-1.842 c 6.057,-0.878 11.292,-4.673 14.001,-10.148 l 5.681,-11.484 c 3.056,-6.178 11.887,-6.178 14.943,0 l 5.681,11.484 c 2.709,5.475 7.944,9.27 14.001,10.148 l 12.704,1.842 c 6.834,0.991 9.563,9.369 4.618,14.177 l -9.192,8.939 c -4.383,4.262 -6.382,10.402 -5.348,16.42 l 2.17,12.622 c 1.167,6.79 -5.977,11.968 -12.089,8.762 l -11.363,-5.959 c -5.418,-2.841 -11.89,-2.841 -17.307,0 z"/><path id="path16" fill="#d4d4d4" d="m 221,434.496 h 70 v 50 h -70 z"/><path id="path18" fill="#bdbdbd" d="m 261,434.496 h 30 v 50 h -30 z"/><path id="path20" d="M 419.548,298.505 C 401.483,283.796 380.952,276.3 367.024,272.614 372.997,246.4 377,221.435 377,201.604 c 0,-46.747 -13.492,-89.977 -40.101,-128.491 -2.354,-3.408 -7.024,-4.263 -10.434,-1.908 -3.408,2.354 -4.262,7.026 -1.907,10.433 C 349.403,117.6 362,157.961 362,201.604 c 0,66.305 -48.973,198.634 -59.138,225.384 H 209.138 C 198.973,400.239 150,267.909 150,201.604 150,87.26 237.131,27.442 255.993,15.836 c 7.844,4.835 28.509,18.651 49.34,41.613 2.783,3.069 7.527,3.298 10.594,0.516 3.067,-2.783 3.298,-7.526 0.515,-10.594 C 291.78,20.187 267.751,5.262 260.976,1.336 257.903,-0.445 254.086,-0.446 251.015,1.335 239.141,8.216 135,72.291 135,201.604 c 0,19.829 4.002,44.791 9.974,71.003 -5.748,1.514 -11.432,3.363 -16.973,5.526 -3.858,1.506 -5.766,5.854 -4.26,9.713 1.157,2.964 3.989,4.775 6.989,4.775 0.907,0 1.83,-0.166 2.725,-0.516 5.504,-2.148 10.658,-3.741 15.009,-4.901 10.971,43.924 26.312,89.305 36.81,118.533 -20.296,3.133 -36.031,11.532 -46.862,25.037 -16.41,20.462 -17.231,47.455 -15.875,63.514 -18.861,-9.195 -55.038,-36.05 -55.038,-106.518 0,-35.143 13.161,-62.475 39.117,-81.233 3.357,-2.427 4.112,-7.115 1.686,-10.473 -2.426,-3.356 -7.115,-4.112 -10.472,-1.685 -29.655,21.432 -45.33,53.727 -45.33,93.39 0,90.463 55.018,117.466 71.878,123.586 7.495,2.721 15.116,-3.583 13.917,-11.402 -1.727,-11.394 -4.033,-40.03 11.818,-59.795 8.889,-11.084 22.469,-17.8 40.418,-20.006 3.603,9.726 6.002,15.88 6.468,17.071 1.125,2.874 3.897,4.765 6.983,4.765 h 9.517 v 42.499 c 0,4.143 3.358,7.5 7.5,7.5 h 70 c 4.142,0 7.5,-3.357 7.5,-7.5 v -42.499 h 9.517 c 3.086,0 5.858,-1.891 6.983,-4.765 0.466,-1.191 2.865,-7.345 6.468,-17.071 10.587,1.3 19.695,4.17 27.133,8.558 3.56,2.1 8.162,0.925 10.271,-2.649 2.104,-3.568 0.918,-8.166 -2.649,-10.27 -8.38,-4.942 -18.271,-8.309 -29.498,-10.05 10.499,-29.229 25.842,-74.617 36.814,-118.545 28.978,7.675 80.962,31.14 80.962,100.573 0,70.478 -36.185,97.33 -55.046,106.522 1.079,-12.975 0.793,-33.962 -8.67,-52.381 -1.894,-3.684 -6.415,-5.137 -10.099,-3.243 -3.684,1.893 -5.136,6.414 -3.243,10.099 9.772,19.019 7.635,42.133 6.265,51.175 -1.204,7.854 6.444,14.132 13.913,11.416 16.863,-6.121 71.881,-33.125 71.881,-123.587 -10e-4,-37.647 -13.443,-67.68 -39.953,-89.265 z M 283.5,476.988 h -55 v -35 h 55 z"/><path id="path22" d="m 284.229,177.545 c -3.616,-0.523 -6.739,-2.786 -8.354,-6.05 l -5.682,-11.485 c -5.808,-11.738 -22.581,-11.736 -28.388,0.001 l -5.681,11.483 c -1.615,3.265 -4.738,5.527 -8.354,6.051 l -12.704,1.842 c -12.982,1.883 -18.174,17.832 -8.771,26.976 l 9.192,8.939 c 2.61,2.538 3.801,6.19 3.185,9.771 l -2.17,12.622 c -2.218,12.905 11.349,22.764 22.964,16.675 l 11.362,-5.96 c 3.237,-1.697 7.102,-1.697 10.338,0 l 11.364,5.961 c 11.614,6.09 25.179,-3.786 22.963,-16.676 l -2.17,-12.622 c -0.616,-3.581 0.575,-7.233 3.185,-9.771 l 9.192,-8.939 c 9.399,-9.139 4.219,-25.093 -8.77,-26.976 z m 11.017,18.064 -9.192,8.939 c -6.157,5.987 -8.964,14.61 -7.51,23.066 l 2.17,12.622 c 0.113,0.655 -0.577,1.183 -1.213,0.851 l -11.363,-5.96 c -3.8,-1.993 -7.968,-2.989 -12.136,-2.989 -4.168,0 -8.336,0.996 -12.136,2.989 l -11.362,5.959 c -0.625,0.334 -1.329,-0.184 -1.214,-0.85 l 2.17,-12.622 c 1.454,-8.456 -1.354,-17.079 -7.51,-23.066 l -9.193,-8.939 c -0.487,-0.473 -0.229,-1.28 0.465,-1.377 l 12.704,-1.842 c 8.499,-1.232 15.843,-6.558 19.647,-14.245 l 5.681,-11.483 c 0.306,-0.62 1.191,-0.624 1.499,-0.001 l 5.682,11.485 c 3.803,7.686 11.147,13.012 19.646,14.244 l 12.705,1.842 c 0.692,0.098 0.945,0.908 0.46,1.377 z"/><path id="path24" d="m 256,124.493 c -46.593,0 -84.5,37.906 -84.5,84.499 0,46.593 37.907,84.499 84.5,84.499 46.593,0 84.5,-37.906 84.5,-84.499 0,-46.593 -37.907,-84.499 -84.5,-84.499 z m 0,153.998 c -38.322,0 -69.5,-31.177 -69.5,-69.499 0,-38.322 31.178,-69.499 69.5,-69.499 38.322,0 69.5,31.177 69.5,69.499 0,38.322 -31.178,69.499 -69.5,69.499 z"/></g></svg>