<svg xmlns="http://www.w3.org/2000/svg" xmlns:svg="http://www.w3.org/2000/svg" id="svg22" width="512pt" height="512pt" version="1.1" viewBox="0 0 512 512"><metadata id="metadata28"/><g id="layer1" display="inline" opacity=".08"><path id="path2" fill="#36d28f" d="m 256,10 c -32.21484,0 -62.98438,6.195312 -91.18359,17.457031 L 154.86328,10.320312 115.31641,79.25 194.78125,79.03125 185.18359,62.511719 C 207.26953,54.425781 231.11328,50 256,50 369.76953,50 462,142.23047 462,256 462,369.76953 369.76953,462 256,462 142.23047,462 50,369.76953 50,256 H 10 C 10,391.86328 120.13672,502 256,502 391.86328,502 502,391.86328 502,256 502,120.13672 391.86328,10 256,10 Z m 0,0"/><path id="path4" fill="#ade5ff" d="M 420,256 C 420,346.57422 346.57422,420 256,420 165.42578,420 92,346.57422 92,256 92,165.42578 165.42578,92 256,92 c 90.57422,0 164,73.42578 164,164 z m 0,0"/><path id="path6" d="M 437.01953,74.980469 C 388.66797,26.628906 324.37891,0 256,0 226.14062,0 196.98437,5.074219 169.19922,15.097656 l -5.69141,-9.800781 c -1.78906,-3.078125 -5.08203,-4.976563 -8.64453,-4.976563 -0.008,0 -0.0195,0 -0.0273,0 -3.57032,0.011719 -6.86719,1.925782 -8.64453,5.023438 l -39.54688,68.925781 c -1.77734,3.101563 -1.76562,6.914063 0.0273,10 1.78907,3.082031 5.08594,4.976563 8.64454,4.976563 h 0.0273 l 79.46484,-0.214844 c 3.57422,-0.01172 6.8711,-1.925781 8.64844,-5.023438 1.77734,-3.097656 1.76563,-6.910156 -0.0273,-10 L 200.01172,68.125 C 218.11719,62.730469 236.90234,60 256,60 364.07422,60 452,147.92578 452,256 452,364.07422 364.07422,452 256,452 147.92578,452 60,364.07422 60,256 60,250.47656 55.523438,246 50,246 H 10 C 4.476562,246 0,250.47656 0,256 0,324.37891 26.628906,388.66797 74.980469,437.01953 123.33203,485.37109 187.62109,512 256,512 324.37891,512 388.66797,485.37109 437.01953,437.01953 485.37109,388.66797 512,324.37891 512,256 512,187.62109 485.37109,123.33203 437.01953,74.980469 Z M 256,492 C 129.22266,492 25.46875,391.50781 20.210938,266 H 40.226562 C 42.667969,319.94141 64.832031,370.30469 103.26562,408.73437 144.0625,449.53125 198.30469,472 256,472 313.69531,472 367.9375,449.53125 408.73437,408.73437 449.53125,367.9375 472,313.69531 472,256 472,198.30469 449.53125,144.0625 408.73437,103.26563 367.9375,62.46875 313.69531,40 256,40 c -25.48828,0 -50.47266,4.414062 -74.25391,13.121094 -2.77734,1.015625 -4.96093,3.210937 -5.96484,5.992187 -1.00781,2.78125 -0.73047,5.863281 0.75781,8.421875 l 0.89453,1.542969 -44.82422,0.121094 22.30469,-38.878907 1.25781,2.160157 c 2.48829,4.289062 7.75,6.105469 12.35157,4.261719 C 196.34766,25.632812 225.77734,20 256,20 386.13281,20 492,125.86719 492,256 492,386.13281 386.13281,492 256,492 Z m 0,0"/><path id="path8" d="m 379.03516,132.96484 c -3.89844,-3.89843 -10.19532,-3.88672 -14.10157,0.008 -3.91015,3.89062 -3.90625,10.23437 -0.0234,14.14843 0.0117,0.0117 0.0664,0.0664 0.0742,0.0742 1.94922,1.94531 4.49219,2.91797 7.03907,2.91797 2.55468,0 5.10937,-0.97656 7.0664,-2.92578 3.91016,-3.89063 3.90625,-10.23438 0.0234,-14.15234 -0.0117,-0.008 -0.0664,-0.0625 -0.0781,-0.0703 z m 0,0"/><path id="path10" d="m 344.55469,117.55859 c 2.6875,-4.82421 0.95703,-10.91406 -3.86719,-13.60546 C 308.28516,85.882812 270.07812,78.625 233.10156,83.503906 194.90234,88.550781 160.27344,105.65234 132.96484,132.96484 100.09766,165.82812 82,209.52344 82,256 c 0,46.47656 18.09766,90.17187 50.96484,123.03516 C 165.82812,411.90234 209.52344,430 256,430 c 46.47656,0 90.17187,-18.09766 123.03516,-50.96484 56.54296,-56.53907 67.36718,-143.875 26.32031,-212.37891 -2.83594,-4.73828 -8.98047,-6.27344 -13.71875,-3.4375 -4.73828,2.83984 -6.27735,8.98047 -3.4375,13.71875 36.32422,60.62109 26.73828,137.91406 -23.30469,187.95703 C 335.80859,393.98047 297.13672,410 256,410 214.86328,410 176.19141,393.98047 147.10547,364.89453 118.01953,335.80859 102,297.13672 102,256 c 0,-41.13672 16.01953,-79.80859 45.10547,-108.89453 48.46094,-48.460939 124.05859,-59.019532 183.84375,-25.68359 4.82422,2.6875 10.91406,0.95703 13.60547,-3.86329 z m 0,0"/><path id="path12" d="M 266.12891,136.5 V 129 c 0,-5.52344 -4.48047,-10 -10,-10 -5.52344,0 -10,4.47656 -10,10 v 7.5 c 0,5.52344 4.47656,10 10,10 5.51953,0 10,-4.47656 10,-10 z m 0,0"/><path id="path14" d="m 245.87109,375.5 v 7.5 c 0,5.52344 4.48047,10 10,10 5.52344,0 10,-4.47656 10,-10 v -7.5 c 0,-5.52344 -4.47656,-10 -10,-10 -5.51953,0 -10,4.47656 -10,10 z m 0,0"/><path id="path16" d="m 365.5,256.12891 c 0,5.51953 4.47656,10 10,10 h 7.5 c 5.52344,0 10,-4.48047 10,-10 0,-5.52344 -4.47656,-10 -10,-10 h -7.5 c -5.52344,0 -10,4.47656 -10,10 z m 0,0"/><path id="path18" d="m 129,245.87109 c -5.52344,0 -10,4.48047 -10,10 0,5.52344 4.47656,10 10,10 h 7.5 c 5.52344,0 10,-4.47656 10,-10 0,-5.51953 -4.47656,-10 -10,-10 z m 0,0"/><path id="path20" d="m 316,256 c 0,-5.52344 -4.47656,-10 -10,-10 h -45.85938 l -74.97265,-74.97266 c -3.90235,-3.90625 -10.23438,-3.90625 -14.14063,0 -3.90625,3.90235 -3.90625,10.23438 0,14.14063 l 77.90235,77.90234 C 250.80469,264.94531 253.34766,266 256,266 h 50 c 5.52344,0 10,-4.47656 10,-10 z m 0,0"/></g></svg>