<?xml version="1.0" encoding="UTF-8" standalone="no"?>
<svg
   xmlns:dc="http://purl.org/dc/elements/1.1/"
   xmlns:cc="http://creativecommons.org/ns#"
   xmlns:rdf="http://www.w3.org/1999/02/22-rdf-syntax-ns#"
   xmlns:svg="http://www.w3.org/2000/svg"
   xmlns="http://www.w3.org/2000/svg"
   xmlns:sodipodi="http://sodipodi.sourceforge.net/DTD/sodipodi-0.dtd"
   xmlns:inkscape="http://www.inkscape.org/namespaces/inkscape"
   width="512pt"
   height="512pt"
   version="1.1"
   viewBox="0 0 512 512"
   id="svg45"
   sodipodi:docname="information.svg"
   inkscape:version="0.92.3 (2405546, 2018-03-11)">
  <metadata
     id="metadata51">
    <rdf:RDF>
      <cc:Work
         rdf:about="">
        <dc:format>image/svg+xml</dc:format>
        <dc:type
           rdf:resource="http://purl.org/dc/dcmitype/StillImage" />
      </cc:Work>
    </rdf:RDF>
  </metadata>
  <defs
     id="defs49" />
  <sodipodi:namedview
     pagecolor="#ffffff"
     bordercolor="#666666"
     borderopacity="1"
     objecttolerance="10"
     gridtolerance="10"
     guidetolerance="10"
     inkscape:pageopacity="0"
     inkscape:pageshadow="2"
     inkscape:window-width="1920"
     inkscape:window-height="1013"
     id="namedview47"
     showgrid="false"
     inkscape:zoom="0.34570313"
     inkscape:cx="-203.9322"
     inkscape:cy="341.33333"
     inkscape:window-x="-9"
     inkscape:window-y="-9"
     inkscape:window-maximized="1"
     inkscape:current-layer="layer1" />
  <g
     inkscape:groupmode="layer"
     id="layer1"
     inkscape:label="Layer 1"
     style="opacity:0.08">
    <g
       style=""
       id="surface1">
      <path
         fill="#19CFFC"
         fill-opacity="1"
         fill-rule="nonzero"
         stroke="none"
         d="M 512 256 C 512 397.386719 397.386719 512 256 512 C 114.613281 512 0 397.386719 0 256 C 0 114.613281 114.613281 0 256 0 C 397.386719 0 512 114.613281 512 256 Z M 512 256"
         id="path2"
         style="" />
      <path
         fill="#4AB8F7"
         fill-opacity="1"
         fill-rule="nonzero"
         stroke="none"
         d="M 512 256 C 512 244.609375 511.246094 233.394531 509.804688 222.398438 L 382 94.59375 L 358.019531 127.707031 L 315.625 85.3125 L 311.96875 92.195312 L 281.410156 61.632812 L 130 426.46875 L 211.699219 508.171875 C 226.089844 510.679688 240.890625 512 256 512 C 397.386719 512 512 397.386719 512 256 Z M 512 256"
         id="path4"
         style="" />
      <path
         fill="#FFF"
         fill-opacity="1"
         fill-rule="nonzero"
         stroke="none"
         d="M 130 94.59375 L 382 94.59375 L 382 426.46875 L 130 426.46875 Z M 130 94.59375"
         id="path6"
         style="" />
      <path
         fill="#E9EDF5"
         fill-opacity="1"
         fill-rule="nonzero"
         stroke="none"
         d="M 255.761719 94.59375 L 382 94.59375 L 382 426.46875 L 255.761719 426.46875 Z M 255.761719 94.59375"
         id="path8"
         style="" />
      <path
         fill="#7E8596"
         fill-opacity="1"
         fill-rule="nonzero"
         stroke="none"
         d="M 337 218.34375 C 337 263.078125 300.734375 299.34375 256 299.34375 C 211.265625 299.34375 175 263.078125 175 218.34375 C 175 173.609375 211.265625 137.34375 256 137.34375 C 300.734375 137.34375 337 173.609375 337 218.34375 Z M 337 218.34375"
         id="path10"
         style="" />
      <path
         fill="#707789"
         fill-opacity="1"
         fill-rule="nonzero"
         stroke="none"
         d="M 256 137.34375 C 255.921875 137.34375 255.84375 137.351562 255.761719 137.351562 L 255.761719 299.339844 C 255.84375 299.339844 255.921875 299.34375 256 299.34375 C 300.734375 299.34375 337 263.078125 337 218.34375 C 337 173.609375 300.734375 137.34375 256 137.34375 Z M 256 137.34375"
         id="path12"
         style="" />
      <path
         fill="#DCE1EB"
         fill-opacity="1"
         fill-rule="nonzero"
         stroke="none"
         d="M 291.953125 195.777344 C 291.953125 215.636719 275.855469 231.734375 256 231.734375 C 236.144531 231.734375 220.046875 215.636719 220.046875 195.777344 C 220.046875 175.921875 236.144531 159.824219 256 159.824219 C 275.855469 159.824219 291.953125 175.921875 291.953125 195.777344 Z M 291.953125 195.777344"
         id="path14"
         style="" />
      <path
         fill="#CDD2E1"
         fill-opacity="1"
         fill-rule="nonzero"
         stroke="none"
         d="M 256 159.824219 C 255.921875 159.824219 255.84375 159.832031 255.761719 159.832031 L 255.761719 231.726562 C 255.84375 231.726562 255.921875 231.734375 256 231.734375 C 275.855469 231.734375 291.953125 215.636719 291.953125 195.777344 C 291.953125 175.921875 275.855469 159.824219 256 159.824219 Z M 256 159.824219"
         id="path16"
         style="" />
      <path
         fill="#DCE1EB"
         fill-opacity="1"
         fill-rule="nonzero"
         stroke="none"
         d="M 256 299.34375 C 280 299.34375 301.550781 288.898438 316.382812 272.3125 C 306.664062 248.511719 283.296875 231.734375 256 231.734375 C 228.703125 231.734375 205.335938 248.511719 195.617188 272.3125 C 210.449219 288.898438 232 299.34375 256 299.34375 Z M 256 299.34375"
         id="path18"
         style="" />
      <path
         fill="#CDD2E1"
         fill-opacity="1"
         fill-rule="nonzero"
         stroke="none"
         d="M 256 231.734375 C 255.921875 231.734375 255.84375 231.738281 255.761719 231.738281 L 255.761719 299.339844 C 255.84375 299.339844 255.921875 299.34375 256 299.34375 C 280 299.34375 301.550781 288.898438 316.382812 272.3125 C 306.664062 248.511719 283.296875 231.734375 256 231.734375 Z M 256 231.734375"
         id="path20"
         style="" />
      <path
         fill="#414952"
         fill-opacity="1"
         fill-rule="nonzero"
         stroke="none"
         d="M 291.683594 85.3125 C 290.945312 66.238281 275.253906 51 256 51 C 236.746094 51 221.054688 66.238281 220.316406 85.3125 L 196.375 85.3125 L 196.375 127.6875 L 315.625 127.6875 L 315.625 85.3125 Z M 291.683594 85.3125"
         id="path22"
         style="" />
      <path
         fill="#333940"
         fill-opacity="1"
         fill-rule="nonzero"
         stroke="none"
         d="M 315.625 85.3125 L 291.683594 85.3125 C 290.945312 66.238281 275.253906 51 256 51 C 255.921875 51 255.84375 51.003906 255.761719 51.007812 L 255.761719 127.6875 L 315.625 127.6875 Z M 315.625 85.3125"
         id="path24"
         style="" />
      <path
         fill="#FE6A16"
         fill-opacity="1"
         fill-rule="nonzero"
         stroke="none"
         d="M 155.300781 318.46875 L 230.675781 318.46875 L 230.675781 338.71875 L 155.300781 338.71875 Z M 155.300781 318.46875"
         id="path26"
         style="" />
      <path
         fill="#7E8596"
         fill-opacity="1"
         fill-rule="nonzero"
         stroke="none"
         d="M 237.0625 318.46875 L 341.125 318.46875 L 341.125 338.71875 L 237.0625 338.71875 Z M 237.0625 318.46875"
         id="path28"
         style="" />
      <path
         fill="#707789"
         fill-opacity="1"
         fill-rule="nonzero"
         stroke="none"
         d="M 255.761719 318.46875 L 341.125 318.46875 L 341.125 338.71875 L 255.761719 338.71875 Z M 255.761719 318.46875"
         id="path30"
         style="" />
      <path
         fill="#FE6A16"
         fill-opacity="1"
         fill-rule="nonzero"
         stroke="none"
         d="M 155.300781 351.46875 L 230.675781 351.46875 L 230.675781 371.71875 L 155.300781 371.71875 Z M 155.300781 351.46875"
         id="path32"
         style="" />
      <path
         fill="#7E8596"
         fill-opacity="1"
         fill-rule="nonzero"
         stroke="none"
         d="M 237.0625 351.46875 L 307.375 351.46875 L 307.375 371.71875 L 237.0625 371.71875 Z M 237.0625 351.46875"
         id="path34"
         style="" />
      <path
         fill="#707789"
         fill-opacity="1"
         fill-rule="nonzero"
         stroke="none"
         d="M 255.761719 351.46875 L 307.375 351.46875 L 307.375 371.71875 L 255.761719 371.71875 Z M 255.761719 351.46875"
         id="path36"
         style="" />
      <path
         fill="#FE6A16"
         fill-opacity="1"
         fill-rule="nonzero"
         stroke="none"
         d="M 155.300781 384.46875 L 230.675781 384.46875 L 230.675781 404.71875 L 155.300781 404.71875 Z M 155.300781 384.46875"
         id="path38"
         style="" />
      <path
         fill="#7E8596"
         fill-opacity="1"
         fill-rule="nonzero"
         stroke="none"
         d="M 237.0625 384.46875 L 356.699219 384.46875 L 356.699219 404.71875 L 237.0625 404.71875 Z M 237.0625 384.46875"
         id="path40"
         style="" />
      <path
         fill="#707789"
         fill-opacity="1"
         fill-rule="nonzero"
         stroke="none"
         d="M 255.761719 384.46875 L 356.699219 384.46875 L 356.699219 404.71875 L 255.761719 404.71875 Z M 255.761719 384.46875"
         id="path42"
         style="" />
    </g>
  </g>
</svg>
